<svg width="240" height="240" viewBox="0 0 240 240" fill="none" xmlns="http://www.w3.org/2000/svg">
<rect width="240" height="240" fill="#E5E5E5"/>
<rect width="240" height="240" fill="#F6C90E"/>
<path d="M99.192 35.608V81.496C99.192 88.6 97.176 94.072 93.144 97.912C89.176 101.752 83.8 103.672 77.016 103.672C69.912 103.672 64.216 101.656 59.928 97.624C55.64 93.592 53.496 87.864 53.496 80.44H69.816C69.816 83.256 70.392 85.4 71.544 86.872C72.696 88.28 74.36 88.984 76.536 88.984C78.52 88.984 80.056 88.344 81.144 87.064C82.232 85.784 82.776 83.928 82.776 81.496V35.608H99.192ZM157.18 103.672C152.252 103.672 147.836 102.872 143.932 101.272C140.028 99.672 136.892 97.304 134.524 94.168C132.22 91.032 131.004 87.256 130.876 82.84H148.348C148.604 85.336 149.468 87.256 150.94 88.6C152.412 89.88 154.332 90.52 156.7 90.52C159.132 90.52 161.052 89.976 162.46 88.888C163.868 87.736 164.572 86.168 164.572 84.184C164.572 82.52 163.996 81.144 162.844 80.056C161.756 78.968 160.38 78.072 158.716 77.368C157.116 76.664 154.812 75.864 151.804 74.968C147.452 73.624 143.9 72.28 141.148 70.936C138.396 69.592 136.028 67.608 134.044 64.984C132.06 62.36 131.068 58.936 131.068 54.712C131.068 48.44 133.34 43.544 137.884 40.024C142.428 36.44 148.348 34.648 155.644 34.648C163.068 34.648 169.052 36.44 173.596 40.024C178.14 43.544 180.572 48.472 180.892 54.808H163.132C163.004 52.632 162.204 50.936 160.732 49.72C159.26 48.44 157.372 47.8 155.068 47.8C153.084 47.8 151.484 48.344 150.268 49.432C149.052 50.456 148.444 51.96 148.444 53.944C148.444 56.12 149.468 57.816 151.516 59.032C153.564 60.248 156.764 61.56 161.116 62.968C165.468 64.44 168.988 65.848 171.676 67.192C174.428 68.536 176.796 70.488 178.78 73.048C180.764 75.608 181.756 78.904 181.756 82.936C181.756 86.776 180.764 90.264 178.78 93.4C176.86 96.536 174.044 99.032 170.332 100.888C166.62 102.744 162.236 103.672 157.18 103.672ZM54.744 195.848C56.92 194.12 57.912 193.32 57.72 193.448C63.992 188.264 68.92 184.008 72.504 180.68C76.152 177.352 79.224 173.864 81.72 170.216C84.216 166.568 85.464 163.016 85.464 159.56C85.464 156.936 84.856 154.888 83.64 153.416C82.424 151.944 80.6 151.208 78.168 151.208C75.736 151.208 73.816 152.136 72.408 153.992C71.064 155.784 70.392 158.344 70.392 161.672H54.552C54.68 156.232 55.832 151.688 58.008 148.04C60.248 144.392 63.16 141.704 66.744 139.976C70.392 138.248 74.424 137.384 78.84 137.384C86.456 137.384 92.184 139.336 96.024 143.24C99.928 147.144 101.88 152.232 101.88 158.504C101.88 165.352 99.544 171.72 94.872 177.608C90.2 183.432 84.248 189.128 77.016 194.696H102.936V208.04H54.744V195.848ZM130.508 173C130.508 161.992 132.62 153.32 136.844 146.984C141.132 140.648 148.012 137.48 157.484 137.48C166.956 137.48 173.804 140.648 178.028 146.984C182.316 153.32 184.46 161.992 184.46 173C184.46 184.136 182.316 192.872 178.028 199.208C173.804 205.544 166.956 208.712 157.484 208.712C148.012 208.712 141.132 205.544 136.844 199.208C132.62 192.872 130.508 184.136 130.508 173ZM168.332 173C168.332 166.536 167.628 161.576 166.22 158.12C164.812 154.6 161.9 152.84 157.484 152.84C153.068 152.84 150.156 154.6 148.748 158.12C147.34 161.576 146.636 166.536 146.636 173C146.636 177.352 146.892 180.968 147.404 183.848C147.916 186.664 148.94 188.968 150.476 190.76C152.076 192.488 154.412 193.352 157.484 193.352C160.556 193.352 162.86 192.488 164.396 190.76C165.996 188.968 167.052 186.664 167.564 183.848C168.076 180.968 168.332 177.352 168.332 173Z" fill="#141D26"/>
</svg>
